# xmcd
# Track frame offsets:
# 150
# 10510
# 23800
# 39415
# 52925
# 67572
# 84352
# 99635
# 116237
# 133547
#
# Disc length: 1992 seconds
# Revision: 0
# Processed by: cddbd v1.4PL0 Copyright (c) Steve Scherf et al.
# Submitted via: VisiTrax 2.9.5.180 - For more info visit www.synapsa.com
#
DISCID=6c07c60a
DTITLE=Stephannie Vaughan - Stephannie Vaughan
DYEAR=2000
DGENRE=
TTITLE0=When I think I think of you
TTITLE1=Double crossing my heart
TTITLE2=What's wrong with being treated right
TTITLE3=This time
TTITLE4=Just a snap of your fingers
TTITLE5=At last
TTITLE6=That's how the fairy tail goes
TTITLE7=All you ever wanted
TTITLE8=You got away with my heart
TTITLE9=Words
EXTD=
EXTT0=
EXTT1=
EXTT2=
EXTT3=
EXTT4=
EXTT5=
EXTT6=
EXTT7=
EXTT8=
EXTT9=
PLAYORDER=
